<?xml version="1.0" encoding="utf-8"?>
<!-- Generator: Adobe Illustrator 20.1.0, SVG Export Plug-In . SVG Version: 6.00 Build 0)  -->
<svg version="1.1" id="Layer_1" xmlns="http://www.w3.org/2000/svg" xmlns:xlink="http://www.w3.org/1999/xlink" x="0px" y="0px"
	 viewBox="0 0 86 119" style="enable-background:new 0 0 86 119;" xml:space="preserve">
<style type="text/css">
	.st0{fill:none;stroke:#377293;stroke-width:1.6544;stroke-miterlimit:10;}
	.st1{fill:none;stroke:#377293;stroke-width:1.6544;}
</style>
<g>
	<polygon class="st0" points="11.9,13.6 11.9,111 75,111 	"/>
	<g>
		<path class="st0" d="M40.7,45.5l1.4-3.6c0.8-2,3.7-1.4,3.7,0.8l0,3.9c0,1.8,2.1,2.7,3.3,1.4l2.6-2.8c1.5-1.6,4,0.2,3.2,2.2
			l-1.5,3.6c-0.7,1.6,0.9,3.3,2.5,2.6l3.5-1.5c2-0.9,3.6,1.7,2.1,3.2L58.9,58c-1.2,1.3-0.4,3.4,1.4,3.4l3.8,0c2.1,0,2.7,3,0.7,3.8
			l-3.5,1.5c-1.6,0.7-1.6,3,0,3.7l3.5,1.5c2,0.8,1.4,3.8-0.7,3.8l-3.8,0c-1.7,0-2.6,2.1-1.4,3.4l2.7,2.7c1.5,1.5-0.1,4.1-2.1,3.2
			L56,83.4c-1.6-0.7-3.2,1-2.5,2.6l1.5,3.6c0.8,2-1.7,3.7-3.2,2.2L49.1,89c-1.2-1.3-3.3-0.4-3.3,1.4l0,3.9c0,2.2-2.9,2.8-3.7,0.8
			l-1.4-3.6c-0.7-1.7-2.9-1.7-3.6,0l-1.4,3.6c-0.8,2-3.7,1.4-3.7-0.8l0-3.9c0-1.8-2.1-2.7-3.3-1.4l-2.6,2.8c-1.5,1.6-4-0.2-3.2-2.2
			l1.5-3.6c0.7-1.6-0.9-3.3-2.5-2.6L18.4,85c-2,0.9-3.6-1.7-2.1-3.2L19,79c1.2-1.3,0.4-3.4-1.4-3.4l-3.8,0c-2.1,0-2.7-3-0.7-3.8
			l3.5-1.5c1.6-0.7,1.6-3,0-3.7l-3.5-1.5c-2-0.8-1.4-3.8,0.7-3.8l3.8,0c1.7,0,2.6-2.1,1.4-3.4l-2.7-2.7c-1.5-1.5,0.1-4.1,2.1-3.2
			l3.5,1.5c1.6,0.7,3.2-1,2.5-2.6L23,47.4c-0.8-2,1.7-3.7,3.2-2.2l2.6,2.8c1.2,1.3,3.3,0.4,3.3-1.4l0-3.9c0-2.2,2.9-2.8,3.7-0.8
			l1.4,3.6C37.8,47.2,40.1,47.2,40.7,45.5z"/>
		<ellipse class="st0" cx="38.9" cy="68.5" rx="18.4" ry="18.9"/>
	</g>
	<g>
		<path class="st1" d="M33.4,16.3H18.8V9.5h38.6v6.8H42.7V111h-9.2V16.3z"/>
	</g>
</g>
</svg>
