<?xml version="1.0" encoding="utf-8"?>
<!-- Generator: Adobe Illustrator 20.1.0, SVG Export Plug-In . SVG Version: 6.00 Build 0)  -->
<svg version="1.1" id="Layer_1" xmlns="http://www.w3.org/2000/svg" xmlns:xlink="http://www.w3.org/1999/xlink" x="0px" y="0px"
	 viewBox="0 0 42.5 54.5" style="enable-background:new 0 0 42.5 54.5;" xml:space="preserve">
<style type="text/css">
	.st0{fill:none;stroke:#0F497B;stroke-width:0.6562;stroke-miterlimit:10;}
	.st1{fill:none;stroke:#0F497B;stroke-width:0.6562;}
</style>
<g>
	<polygon class="st0" points="9.5,8.6 9.5,47.2 34.7,47.2 	"/>
	<g>
		<path class="st0" d="M21,21.3l0.6-1.4c0.4-0.8,1.5-0.6,1.5,0.4v1.5c0,0.7,0.8,1.1,1.3,0.6l0.9-1.2c0.6-0.6,1.5,0.1,1.3,0.8
			l-0.6,1.4c-0.2,0.7,0.4,1.3,1.1,1.1l1.4-0.6c0.8-0.4,1.4,0.7,0.8,1.3l-1.1,1.1c-0.5,0.5-0.1,1.4,0.6,1.3h1.5
			c0.8,0,1.1,1.2,0.2,1.5l-1.4,0.6c-0.6,0.2-0.6,1.2,0,1.4l1.4,0.6c0.8,0.4,0.6,1.5-0.2,1.5h-1.5c-0.7,0-1.1,0.8-0.6,1.3l1.1,1.1
			c0.6,0.6,0,1.6-0.8,1.3l-1.4-0.6c-0.6-0.2-1.3,0.4-1.1,1.1l0.6,1.4c0.4,0.8-0.7,1.5-1.3,0.8l-1.1-1.1C23.9,37.9,23,38.3,23,39v1.5
			c0,0.8-1.2,1.1-1.5,0.4l-0.6-1.4c-0.2-0.7-1.2-0.7-1.4,0l-0.6,1.4c-0.4,0.8-1.5,0.6-1.5-0.4V39c0-0.7-0.8-1.1-1.3-0.6l-1.1,1.1
			c-0.6,0.6-1.5-0.1-1.3-0.8l0.6-1.4c0.2-0.7-0.4-1.3-1.1-1.1l-1.4,0.6c-0.8,0.4-1.4-0.7-0.8-1.3l1.1-1.1c0.5-0.5,0.1-1.4-0.6-1.3
			H10c-0.8,0-1.1-1.2-0.2-1.5l1.4-0.6c0.6-0.2,0.6-1.2,0-1.4L10.1,29c-0.8-0.4-0.6-1.5,0.2-1.5h1.5c0.7,0,1.1-0.8,0.6-1.3l-1.2-1.1
			c-0.6-0.6,0-1.6,0.8-1.3l1.4,0.6c0.6,0.2,1.3-0.4,1.1-1.1L14,22c-0.4-0.8,0.6-1.4,1.2-0.8l1.1,1.1c0.5,0.5,1.3,0.1,1.3-0.6v-1.5
			c0-0.8,1.2-1.1,1.5-0.4l0.6,1.4C19.9,21.8,20.8,21.8,21,21.3z"/>
		<ellipse class="st0" cx="20.3" cy="30.4" rx="7.3" ry="7.5"/>
	</g>
	<g>
		<path class="st1" d="M18.1,9.6h-5.9V6.9h15.3v2.7h-5.9v37.6H18V9.6H18.1z"/>
	</g>
</g>
</svg>
