<?xml version="1.0" encoding="utf-8"?>
<!-- Generator: Adobe Illustrator 20.1.0, SVG Export Plug-In . SVG Version: 6.00 Build 0)  -->
<svg version="1.1" id="Layer_1" xmlns="http://www.w3.org/2000/svg" xmlns:xlink="http://www.w3.org/1999/xlink" x="0px" y="0px"
	 viewBox="0 0 205 54.5" style="enable-background:new 0 0 205 54.5;" xml:space="preserve">
<style type="text/css">
	.st0{fill:none;stroke:#F4F4F5;stroke-width:0.5589;stroke-miterlimit:10;}
	.st1{fill:none;stroke:#F4F4F5;stroke-width:0.5589;}
	.st2{fill:none;}
	.st3{fill:#F5F0F6;}
	.st4{font-family:'AGaramondPro-Regular';}
	.st5{font-size:29.6221px;}
	.st6{font-family:'MyriadPro-Light';}
	.st7{font-size:9.5014px;}
	.st8{letter-spacing:1;}
</style>
<g>
	<g>
		<polygon class="st0" points="7.5,14.3 7.5,47.2 28.9,47.2 		"/>
		<g>
			<path class="st0" d="M17.3,25.1l0.5-1.2c0.3-0.7,1.3-0.5,1.3,0.3l0,1.3c0,0.6,0.7,0.9,1.1,0.5L21,25c0.5-0.5,1.3,0.1,1.1,0.7
				l-0.5,1.2c-0.2,0.6,0.3,1.1,0.9,0.9l1.2-0.5c0.7-0.3,1.2,0.6,0.7,1.1l-0.9,0.9c-0.4,0.4-0.1,1.2,0.5,1.1l1.3,0
				c0.7,0,0.9,1,0.2,1.3l-1.2,0.5c-0.5,0.2-0.5,1,0,1.2l1.2,0.5c0.7,0.3,0.5,1.3-0.2,1.3l-1.3,0c-0.6,0-0.9,0.7-0.5,1.1l0.9,0.9
				c0.5,0.5,0,1.4-0.7,1.1l-1.2-0.5c-0.5-0.2-1.1,0.3-0.9,0.9l0.5,1.2c0.3,0.7-0.6,1.3-1.1,0.7l-0.9-0.9c-0.4-0.4-1.1-0.1-1.1,0.5
				l0,1.3c0,0.7-1,0.9-1.3,0.3l-0.5-1.2c-0.2-0.6-1-0.6-1.2,0l-0.5,1.2c-0.3,0.7-1.3,0.5-1.3-0.3l0-1.3c0-0.6-0.7-0.9-1.1-0.5
				l-0.9,0.9c-0.5,0.5-1.3-0.1-1.1-0.7l0.5-1.2c0.2-0.6-0.3-1.1-0.9-0.9l-1.2,0.5c-0.7,0.3-1.2-0.6-0.7-1.1l0.9-0.9
				c0.4-0.4,0.1-1.2-0.5-1.1l-1.3,0c-0.7,0-0.9-1-0.2-1.3l1.2-0.5c0.5-0.2,0.5-1,0-1.2L8,31.7c-0.7-0.3-0.5-1.3,0.2-1.3l1.3,0
				c0.6,0,0.9-0.7,0.5-1.1L9,28.4c-0.5-0.5,0-1.4,0.7-1.1l1.2,0.5c0.5,0.2,1.1-0.3,0.9-0.9l-0.5-1.2C11,25,11.8,24.5,12.3,25
				l0.9,0.9c0.4,0.4,1.1,0.1,1.1-0.5l0-1.3c0-0.7,1-0.9,1.3-0.3l0.5,1.2C16.3,25.6,17.1,25.6,17.3,25.1z"/>
			<ellipse class="st0" cx="16.7" cy="32.9" rx="6.2" ry="6.4"/>
		</g>
		<g>
			<path class="st1" d="M14.8,15.2h-5v-2.3h13v2.3h-5v32h-3.1V15.2z"/>
		</g>
	</g>
	<g>
		<rect x="48.5" y="15.5" class="st2" width="205.3" height="29.2"/>
		<text transform="matrix(1 0 0 1 48.4995 36.6592)" class="st3 st4 st5">VINATECH</text>
		<rect x="52.7" y="40.9" class="st2" width="167.7" height="9.3"/>
		<text transform="matrix(1 0 0 1 52.6914 47.6558)" class="st3 st6 st7 st8">ENGINEERING INCORPORATED</text>
	</g>
</g>
</svg>
